<svg width="920" height="240" viewBox="0 0 920 240" xmlns="http://www.w3.org/2000/svg">
<rect x="0.5" y="0.5" width="919" height="239" rx="10" fill="#1a1b27" stroke="#2f334d" stroke-width="1"/>
<style>
@keyframes fadeIn {
  from { opacity: 0; }
  to { opacity: 1; }
}

.chart-container {
  animation: fadeIn 0.6s ease-out forwards;
}
</style>
<g>
<path d="M2 18h4v-8H2v8zm6-11h4V3h-4v4zm6 0h4V5h-4v2z" fill="#7aa2f7" transform="translate(22,18)" width="24" height="24"/>
<text x="54" y="30" font-family="'Segoe UI', Ubuntu, 'Helvetica Neue', sans-serif" font-size="16" font-weight="600" fill="#7aa2f7">Contribution Activity</text>
</g>
<g class="chart-container" transform="translate(60,60)">
  <line x1="0" y1="0.0" x2="840.0" y2="0.0" stroke="#2f334d" stroke-width="1" opacity="0.5"/>
  <text x="-10" y="4.0" font-family="'Segoe UI', Ubuntu, 'Helvetica Neue', sans-serif" font-size="11" fill="#565f89" text-anchor="end">216</text>
  <line x1="0" y1="35.0" x2="840.0" y2="35.0" stroke="#2f334d" stroke-width="1" opacity="0.5"/>
  <text x="-10" y="39.0" font-family="'Segoe UI', Ubuntu, 'Helvetica Neue', sans-serif" font-size="11" fill="#565f89" text-anchor="end">162</text>
  <line x1="0" y1="70.0" x2="840.0" y2="70.0" stroke="#2f334d" stroke-width="1" opacity="0.5"/>
  <text x="-10" y="74.0" font-family="'Segoe UI', Ubuntu, 'Helvetica Neue', sans-serif" font-size="11" fill="#565f89" text-anchor="end">108</text>
  <line x1="0" y1="105.0" x2="840.0" y2="105.0" stroke="#2f334d" stroke-width="1" opacity="0.5"/>
  <text x="-10" y="109.0" font-family="'Segoe UI', Ubuntu, 'Helvetica Neue', sans-serif" font-size="11" fill="#565f89" text-anchor="end">54</text>
  <line x1="0" y1="140.0" x2="840.0" y2="140.0" stroke="#2f334d" stroke-width="1" opacity="0.5"/>
  <text x="-10" y="144.0" font-family="'Segoe UI', Ubuntu, 'Helvetica Neue', sans-serif" font-size="11" fill="#565f89" text-anchor="end">0</text>
  <path d="M 0.0 88.1 L 32.3 123.1 L 64.6 87.5 L 96.9 111.5 L 129.2 103.7 L 161.5 133.5 L 193.8 132.2 L 226.2 123.8 L 258.5 105.0 L 290.8 140.0 L 323.1 138.1 L 355.4 90.7 L 387.7 81.7 L 420.0 123.1 L 452.3 136.1 L 484.6 129.0 L 516.9 38.9 L 549.2 0.0 L 581.5 72.6 L 613.8 74.5 L 646.2 102.4 L 678.5 126.4 L 710.8 125.1 L 743.1 33.7 L 775.4 106.3 L 807.7 118.6 L 840.0 140.0 L 840.0 140.0 L 0.0 140.0 Z" fill="#7aa2f7" fill-opacity="0.15" stroke="none"/>
  <path id="activity-line" d="M 0.0 88.1 L 32.3 123.1 L 64.6 87.5 L 96.9 111.5 L 129.2 103.7 L 161.5 133.5 L 193.8 132.2 L 226.2 123.8 L 258.5 105.0 L 290.8 140.0 L 323.1 138.1 L 355.4 90.7 L 387.7 81.7 L 420.0 123.1 L 452.3 136.1 L 484.6 129.0 L 516.9 38.9 L 549.2 0.0 L 581.5 72.6 L 613.8 74.5 L 646.2 102.4 L 678.5 126.4 L 710.8 125.1 L 743.1 33.7 L 775.4 106.3 L 807.7 118.6 L 840.0 140.0" stroke="#7aa2f7" stroke-width="2" fill="none" stroke-linecap="round" stroke-linejoin="round"/>
  <circle r="6" fill="#bb9af7" opacity="0.25">
    <animateMotion dur="8s" repeatCount="indefinite"><mpath href="#activity-line"/></animateMotion>
  </circle>
  <circle r="3" fill="#bb9af7">
    <animateMotion dur="8s" repeatCount="indefinite"><mpath href="#activity-line"/></animateMotion>
  </circle>
  <circle cx="0.0" cy="88.1" r="3" fill="#bb9af7" class="dot dot-0"/>
  <circle cx="32.3" cy="123.1" r="3" fill="#bb9af7" class="dot dot-1"/>
  <circle cx="64.6" cy="87.5" r="3" fill="#bb9af7" class="dot dot-2"/>
  <circle cx="96.9" cy="111.5" r="3" fill="#bb9af7" class="dot dot-3"/>
  <circle cx="129.2" cy="103.7" r="3" fill="#bb9af7" class="dot dot-4"/>
  <circle cx="161.5" cy="133.5" r="3" fill="#bb9af7" class="dot dot-5"/>
  <circle cx="193.8" cy="132.2" r="3" fill="#bb9af7" class="dot dot-6"/>
  <circle cx="226.2" cy="123.8" r="3" fill="#bb9af7" class="dot dot-7"/>
  <circle cx="258.5" cy="105.0" r="3" fill="#bb9af7" class="dot dot-8"/>
  <circle cx="290.8" cy="140.0" r="3" fill="#bb9af7" class="dot dot-9"/>
  <circle cx="323.1" cy="138.1" r="3" fill="#bb9af7" class="dot dot-10"/>
  <circle cx="355.4" cy="90.7" r="3" fill="#bb9af7" class="dot dot-11"/>
  <circle cx="387.7" cy="81.7" r="3" fill="#bb9af7" class="dot dot-12"/>
  <circle cx="420.0" cy="123.1" r="3" fill="#bb9af7" class="dot dot-13"/>
  <circle cx="452.3" cy="136.1" r="3" fill="#bb9af7" class="dot dot-14"/>
  <circle cx="484.6" cy="129.0" r="3" fill="#bb9af7" class="dot dot-15"/>
  <circle cx="516.9" cy="38.9" r="3" fill="#bb9af7" class="dot dot-16"/>
  <circle cx="549.2" cy="0.0" r="3" fill="#bb9af7" class="dot dot-17"/>
  <circle cx="581.5" cy="72.6" r="3" fill="#bb9af7" class="dot dot-18"/>
  <circle cx="613.8" cy="74.5" r="3" fill="#bb9af7" class="dot dot-19"/>
  <circle cx="646.2" cy="102.4" r="3" fill="#bb9af7" class="dot dot-20"/>
  <circle cx="678.5" cy="126.4" r="3" fill="#bb9af7" class="dot dot-21"/>
  <circle cx="710.8" cy="125.1" r="3" fill="#bb9af7" class="dot dot-22"/>
  <circle cx="743.1" cy="33.7" r="3" fill="#bb9af7" class="dot dot-23"/>
  <circle cx="775.4" cy="106.3" r="3" fill="#bb9af7" class="dot dot-24"/>
  <circle cx="807.7" cy="118.6" r="3" fill="#bb9af7" class="dot dot-25"/>
  <circle cx="840.0" cy="140.0" r="3" fill="#bb9af7" class="dot dot-26"/>
  <rect x="549.2" y="-22.0" width="40" height="20" rx="3" fill="#73daca" opacity="0.9"/>
  <text x="566.2" y="-10.0" font-family="'Segoe UI', Ubuntu, 'Helvetica Neue', sans-serif" font-size="11" font-weight="600" fill="#1a1b27" text-anchor="middle">216</text>
  <text x="0.0" y="160.0" font-family="'Segoe UI', Ubuntu, 'Helvetica Neue', sans-serif" font-size="11" fill="#565f89" text-anchor="middle">Mar</text>
  <text x="129.2" y="160.0" font-family="'Segoe UI', Ubuntu, 'Helvetica Neue', sans-serif" font-size="11" fill="#565f89" text-anchor="middle">Apr</text>
  <text x="258.5" y="160.0" font-family="'Segoe UI', Ubuntu, 'Helvetica Neue', sans-serif" font-size="11" fill="#565f89" text-anchor="middle">May</text>
  <text x="420.0" y="160.0" font-family="'Segoe UI', Ubuntu, 'Helvetica Neue', sans-serif" font-size="11" fill="#565f89" text-anchor="middle">Jun</text>
  <text x="549.2" y="160.0" font-family="'Segoe UI', Ubuntu, 'Helvetica Neue', sans-serif" font-size="11" fill="#565f89" text-anchor="middle">Jul</text>
  <text x="710.8" y="160.0" font-family="'Segoe UI', Ubuntu, 'Helvetica Neue', sans-serif" font-size="11" fill="#565f89" text-anchor="middle">Aug</text>
  <text x="840.0" y="160.0" font-family="'Segoe UI', Ubuntu, 'Helvetica Neue', sans-serif" font-size="11" fill="#565f89" text-anchor="middle">Sep</text>
</g>
</svg>