<svg width="920" height="240" viewBox="0 0 920 240" xmlns="http://www.w3.org/2000/svg">
<rect x="0.5" y="0.5" width="919" height="239" rx="10" fill="#ffffff" stroke="#d0d7de" stroke-width="1"/>
<style>
@keyframes fadeIn {
  from { opacity: 0; }
  to { opacity: 1; }
}

.chart-container {
  animation: fadeIn 0.6s ease-out forwards;
}
</style>
<g>
<path d="M2 18h4v-8H2v8zm6-11h4V3h-4v4zm6 0h4V5h-4v2z" fill="#3d59a1" transform="translate(22,18)" width="24" height="24"/>
<text x="54" y="30" font-family="'Segoe UI', Ubuntu, 'Helvetica Neue', sans-serif" font-size="16" font-weight="600" fill="#3d59a1">Contribution Activity</text>
</g>
<g class="chart-container" transform="translate(60,60)">
  <line x1="0" y1="0.0" x2="840.0" y2="0.0" stroke="#d0d7de" stroke-width="1" opacity="0.5"/>
  <text x="-10" y="4.0" font-family="'Segoe UI', Ubuntu, 'Helvetica Neue', sans-serif" font-size="11" fill="#6e7781" text-anchor="end">175</text>
  <line x1="0" y1="35.0" x2="840.0" y2="35.0" stroke="#d0d7de" stroke-width="1" opacity="0.5"/>
  <text x="-10" y="39.0" font-family="'Segoe UI', Ubuntu, 'Helvetica Neue', sans-serif" font-size="11" fill="#6e7781" text-anchor="end">131</text>
  <line x1="0" y1="70.0" x2="840.0" y2="70.0" stroke="#d0d7de" stroke-width="1" opacity="0.5"/>
  <text x="-10" y="74.0" font-family="'Segoe UI', Ubuntu, 'Helvetica Neue', sans-serif" font-size="11" fill="#6e7781" text-anchor="end">87</text>
  <line x1="0" y1="105.0" x2="840.0" y2="105.0" stroke="#d0d7de" stroke-width="1" opacity="0.5"/>
  <text x="-10" y="109.0" font-family="'Segoe UI', Ubuntu, 'Helvetica Neue', sans-serif" font-size="11" fill="#6e7781" text-anchor="end">43</text>
  <line x1="0" y1="140.0" x2="840.0" y2="140.0" stroke="#d0d7de" stroke-width="1" opacity="0.5"/>
  <text x="-10" y="144.0" font-family="'Segoe UI', Ubuntu, 'Helvetica Neue', sans-serif" font-size="11" fill="#6e7781" text-anchor="end">0</text>
  <path d="M 0.0 52.0 L 32.3 0.0 L 64.6 76.8 L 96.9 126.4 L 129.2 115.2 L 161.5 94.4 L 193.8 96.0 L 226.2 76.8 L 258.5 113.6 L 290.8 86.4 L 323.1 130.4 L 355.4 131.2 L 387.7 119.2 L 420.0 101.6 L 452.3 135.2 L 484.6 137.6 L 516.9 87.2 L 549.2 84.0 L 581.5 95.2 L 613.8 136.0 L 646.2 131.2 L 678.5 25.6 L 710.8 43.2 L 743.1 127.2 L 775.4 96.0 L 807.7 120.8 L 840.0 140.0 L 840.0 140.0 L 0.0 140.0 Z" fill="#3d59a1" fill-opacity="0.15" stroke="none"/>
  <path id="activity-line" d="M 0.0 52.0 L 32.3 0.0 L 64.6 76.8 L 96.9 126.4 L 129.2 115.2 L 161.5 94.4 L 193.8 96.0 L 226.2 76.8 L 258.5 113.6 L 290.8 86.4 L 323.1 130.4 L 355.4 131.2 L 387.7 119.2 L 420.0 101.6 L 452.3 135.2 L 484.6 137.6 L 516.9 87.2 L 549.2 84.0 L 581.5 95.2 L 613.8 136.0 L 646.2 131.2 L 678.5 25.6 L 710.8 43.2 L 743.1 127.2 L 775.4 96.0 L 807.7 120.8 L 840.0 140.0" stroke="#3d59a1" stroke-width="2" fill="none" stroke-linecap="round" stroke-linejoin="round"/>
  <circle r="6" fill="#7847bd" opacity="0.25">
    <animateMotion dur="8s" repeatCount="indefinite"><mpath href="#activity-line"/></animateMotion>
  </circle>
  <circle r="3" fill="#7847bd">
    <animateMotion dur="8s" repeatCount="indefinite"><mpath href="#activity-line"/></animateMotion>
  </circle>
  <circle cx="0.0" cy="52.0" r="3" fill="#7847bd" class="dot dot-0"/>
  <circle cx="32.3" cy="0.0" r="3" fill="#7847bd" class="dot dot-1"/>
  <circle cx="64.6" cy="76.8" r="3" fill="#7847bd" class="dot dot-2"/>
  <circle cx="96.9" cy="126.4" r="3" fill="#7847bd" class="dot dot-3"/>
  <circle cx="129.2" cy="115.2" r="3" fill="#7847bd" class="dot dot-4"/>
  <circle cx="161.5" cy="94.4" r="3" fill="#7847bd" class="dot dot-5"/>
  <circle cx="193.8" cy="96.0" r="3" fill="#7847bd" class="dot dot-6"/>
  <circle cx="226.2" cy="76.8" r="3" fill="#7847bd" class="dot dot-7"/>
  <circle cx="258.5" cy="113.6" r="3" fill="#7847bd" class="dot dot-8"/>
  <circle cx="290.8" cy="86.4" r="3" fill="#7847bd" class="dot dot-9"/>
  <circle cx="323.1" cy="130.4" r="3" fill="#7847bd" class="dot dot-10"/>
  <circle cx="355.4" cy="131.2" r="3" fill="#7847bd" class="dot dot-11"/>
  <circle cx="387.7" cy="119.2" r="3" fill="#7847bd" class="dot dot-12"/>
  <circle cx="420.0" cy="101.6" r="3" fill="#7847bd" class="dot dot-13"/>
  <circle cx="452.3" cy="135.2" r="3" fill="#7847bd" class="dot dot-14"/>
  <circle cx="484.6" cy="137.6" r="3" fill="#7847bd" class="dot dot-15"/>
  <circle cx="516.9" cy="87.2" r="3" fill="#7847bd" class="dot dot-16"/>
  <circle cx="549.2" cy="84.0" r="3" fill="#7847bd" class="dot dot-17"/>
  <circle cx="581.5" cy="95.2" r="3" fill="#7847bd" class="dot dot-18"/>
  <circle cx="613.8" cy="136.0" r="3" fill="#7847bd" class="dot dot-19"/>
  <circle cx="646.2" cy="131.2" r="3" fill="#7847bd" class="dot dot-20"/>
  <circle cx="678.5" cy="25.6" r="3" fill="#7847bd" class="dot dot-21"/>
  <circle cx="710.8" cy="43.2" r="3" fill="#7847bd" class="dot dot-22"/>
  <circle cx="743.1" cy="127.2" r="3" fill="#7847bd" class="dot dot-23"/>
  <circle cx="775.4" cy="96.0" r="3" fill="#7847bd" class="dot dot-24"/>
  <circle cx="807.7" cy="120.8" r="3" fill="#7847bd" class="dot dot-25"/>
  <circle cx="840.0" cy="140.0" r="3" fill="#7847bd" class="dot dot-26"/>
  <rect x="32.3" y="-22.0" width="40" height="20" rx="3" fill="#0f766e" opacity="0.9"/>
  <text x="49.3" y="-10.0" font-family="'Segoe UI', Ubuntu, 'Helvetica Neue', sans-serif" font-size="11" font-weight="600" fill="#ffffff" text-anchor="middle">175</text>
  <text x="0.0" y="160.0" font-family="'Segoe UI', Ubuntu, 'Helvetica Neue', sans-serif" font-size="11" fill="#6e7781" text-anchor="middle">Jan</text>
  <text x="32.3" y="160.0" font-family="'Segoe UI', Ubuntu, 'Helvetica Neue', sans-serif" font-size="11" fill="#6e7781" text-anchor="middle">Feb</text>
  <text x="161.5" y="160.0" font-family="'Segoe UI', Ubuntu, 'Helvetica Neue', sans-serif" font-size="11" fill="#6e7781" text-anchor="middle">Mar</text>
  <text x="290.8" y="160.0" font-family="'Segoe UI', Ubuntu, 'Helvetica Neue', sans-serif" font-size="11" fill="#6e7781" text-anchor="middle">Apr</text>
  <text x="452.3" y="160.0" font-family="'Segoe UI', Ubuntu, 'Helvetica Neue', sans-serif" font-size="11" fill="#6e7781" text-anchor="middle">May</text>
  <text x="581.5" y="160.0" font-family="'Segoe UI', Ubuntu, 'Helvetica Neue', sans-serif" font-size="11" fill="#6e7781" text-anchor="middle">Jun</text>
  <text x="710.8" y="160.0" font-family="'Segoe UI', Ubuntu, 'Helvetica Neue', sans-serif" font-size="11" fill="#6e7781" text-anchor="middle">Jul</text>
</g>
</svg>