<svg width="452" height="210" viewBox="0 0 452 210" xmlns="http://www.w3.org/2000/svg">
<rect x="0.5" y="0.5" width="451" height="209" rx="10" fill="#ffffff" stroke="#d0d7de" stroke-width="1"/>
<style>@keyframes fadeIn { from { opacity: 0; } to { opacity: 1; } }
.row { animation: fadeIn 0.6s ease-out backwards; }
.row:nth-of-type(2) { animation-delay: 120ms; }
.row:nth-of-type(3) { animation-delay: 240ms; }
</style>
<g>
<path d="M3 17l6-6 4 4 8-8v5h2V4h-8v2h5l-7 7-4-4-8 8z" fill="#3d59a1" transform="translate(22,18)" width="24" height="24"/>
<text x="54" y="30" font-family="'Segoe UI', Ubuntu, 'Helvetica Neue', sans-serif" font-size="16" font-weight="600" fill="#3d59a1">Growth</text>
</g>
<g class="row">
<text x="22" y="82" font-family="'Segoe UI', Ubuntu, 'Helvetica Neue', sans-serif" font-size="12" fill="#6e7781">Contributions</text>
<polyline points="130.0,92.0 136.7,91.2 143.3,91.2 150.0,91.2 156.7,91.2 163.3,91.2 170.0,91.2 176.7,91.2 183.3,91.2 190.0,77.2 196.7,77.2 203.3,77.2 210.0,77.2 216.7,77.2 223.3,77.2 230.0,77.2 236.7,77.2 243.3,77.2 250.0,77.2 256.7,77.2 263.3,77.2 270.0,77.2 276.7,77.2 283.3,77.2 290.0,71.0 296.7,68.6 303.3,68.4 310.0,68.4 316.7,67.7 323.3,67.7 330.0,66.0" fill="none" stroke="#3d59a1" stroke-width="1.8" stroke-linejoin="round" stroke-linecap="round"/><circle cx="330.0" cy="66.0" r="2.5" fill="#3d59a1"/>
<text x="386" y="82" text-anchor="end" font-family="'Segoe UI', Ubuntu, 'Helvetica Neue', sans-serif" font-size="14" font-weight="700" fill="#24292f">2,038</text>
<text x="430" y="82" text-anchor="end" font-family="'Segoe UI', Ubuntu, 'Helvetica Neue', sans-serif" font-size="11" font-weight="600" fill="#3d59a1">+560</text>
</g>
<g class="row">
<text x="22" y="126" font-family="'Segoe UI', Ubuntu, 'Helvetica Neue', sans-serif" font-size="12" fill="#6e7781">Stars</text>
<polyline points="130.0,136.0 136.7,136.0 143.3,110.0 150.0,110.0 156.7,110.0 163.3,110.0 170.0,110.0 176.7,110.0 183.3,110.0 190.0,110.0 196.7,110.0 203.3,110.0 210.0,110.0 216.7,110.0 223.3,110.0 230.0,110.0 236.7,110.0 243.3,110.0 250.0,110.0 256.7,110.0 263.3,110.0 270.0,110.0 276.7,110.0 283.3,110.0 290.0,110.0 296.7,110.0 303.3,110.0 310.0,110.0 316.7,110.0 323.3,110.0 330.0,110.0" fill="none" stroke="#b15c00" stroke-width="1.8" stroke-linejoin="round" stroke-linecap="round"/><circle cx="330.0" cy="110.0" r="2.5" fill="#b15c00"/>
<text x="386" y="126" text-anchor="end" font-family="'Segoe UI', Ubuntu, 'Helvetica Neue', sans-serif" font-size="14" font-weight="700" fill="#24292f">13</text>
<text x="430" y="126" text-anchor="end" font-family="'Segoe UI', Ubuntu, 'Helvetica Neue', sans-serif" font-size="11" font-weight="600" fill="#b15c00">+4</text>
</g>
<g class="row">
<text x="22" y="170" font-family="'Segoe UI', Ubuntu, 'Helvetica Neue', sans-serif" font-size="12" fill="#6e7781">Followers</text>
<polyline points="130.0,180.0 136.7,180.0 143.3,167.0 150.0,167.0 156.7,167.0 163.3,167.0 170.0,167.0 176.7,154.0 183.3,154.0 190.0,154.0 196.7,154.0 203.3,154.0 210.0,154.0 216.7,154.0 223.3,154.0 230.0,154.0 236.7,154.0 243.3,154.0 250.0,154.0 256.7,154.0 263.3,154.0 270.0,154.0 276.7,154.0 283.3,154.0 290.0,154.0 296.7,154.0 303.3,154.0 310.0,154.0 316.7,154.0 323.3,154.0 330.0,154.0" fill="none" stroke="#0f766e" stroke-width="1.8" stroke-linejoin="round" stroke-linecap="round"/><circle cx="330.0" cy="154.0" r="2.5" fill="#0f766e"/>
<text x="386" y="170" text-anchor="end" font-family="'Segoe UI', Ubuntu, 'Helvetica Neue', sans-serif" font-size="14" font-weight="700" fill="#24292f">6</text>
<text x="430" y="170" text-anchor="end" font-family="'Segoe UI', Ubuntu, 'Helvetica Neue', sans-serif" font-size="11" font-weight="600" fill="#0f766e">+2</text>
</g>
<text x="226" y="196" text-anchor="middle" font-family="'Segoe UI', Ubuntu, 'Helvetica Neue', sans-serif" font-size="10.5" fill="#6e7781">2026-07-26 → 2026-08-25</text>
</svg>