<svg width="452" height="210" viewBox="0 0 452 210" xmlns="http://www.w3.org/2000/svg">
<rect x="0.5" y="0.5" width="451" height="209" rx="10" fill="#ffffff" stroke="#d0d7de" stroke-width="1"/>
<style>@keyframes fadeIn { from { opacity: 0; } to { opacity: 1; } }
.row { animation: fadeIn 0.6s ease-out backwards; }
.row:nth-of-type(2) { animation-delay: 120ms; }
.row:nth-of-type(3) { animation-delay: 240ms; }
</style>
<g>
<path d="M3 17l6-6 4 4 8-8v5h2V4h-8v2h5l-7 7-4-4-8 8z" fill="#3d59a1" transform="translate(22,18)" width="24" height="24"/>
<text x="54" y="30" font-family="'Segoe UI', Ubuntu, 'Helvetica Neue', sans-serif" font-size="16" font-weight="600" fill="#3d59a1">Growth</text>
</g>
<g class="row">
<text x="22" y="82" font-family="'Segoe UI', Ubuntu, 'Helvetica Neue', sans-serif" font-size="12" fill="#6e7781">Contributions</text>
<polyline points="130.0,92.0 135.7,91.2 141.4,91.2 147.1,91.2 152.9,91.2 158.6,91.2 164.3,91.2 170.0,91.2 175.7,91.2 181.4,77.8 187.1,77.8 192.9,77.8 198.6,77.8 204.3,77.8 210.0,77.8 215.7,77.8 221.4,77.8 227.1,77.8 232.9,77.8 238.6,77.8 244.3,77.8 250.0,77.8 255.7,77.8 261.4,77.8 267.1,71.9 272.9,69.6 278.6,69.4 284.3,69.4 290.0,68.8 295.7,68.8 301.4,67.1 307.1,67.1 312.9,67.1 318.6,67.1 324.3,67.1 330.0,66.0" fill="none" stroke="#3d59a1" stroke-width="1.8" stroke-linejoin="round" stroke-linecap="round"/><circle cx="330.0" cy="66.0" r="2.5" fill="#3d59a1"/>
<text x="386" y="82" text-anchor="end" font-family="'Segoe UI', Ubuntu, 'Helvetica Neue', sans-serif" font-size="14" font-weight="700" fill="#24292f">2,063</text>
<text x="430" y="82" text-anchor="end" font-family="'Segoe UI', Ubuntu, 'Helvetica Neue', sans-serif" font-size="11" font-weight="600" fill="#3d59a1">+585</text>
</g>
<g class="row">
<text x="22" y="126" font-family="'Segoe UI', Ubuntu, 'Helvetica Neue', sans-serif" font-size="12" fill="#6e7781">Stars</text>
<polyline points="130.0,136.0 135.7,136.0 141.4,110.0 147.1,110.0 152.9,110.0 158.6,110.0 164.3,110.0 170.0,110.0 175.7,110.0 181.4,110.0 187.1,110.0 192.9,110.0 198.6,110.0 204.3,110.0 210.0,110.0 215.7,110.0 221.4,110.0 227.1,110.0 232.9,110.0 238.6,110.0 244.3,110.0 250.0,110.0 255.7,110.0 261.4,110.0 267.1,110.0 272.9,110.0 278.6,110.0 284.3,110.0 290.0,110.0 295.7,110.0 301.4,110.0 307.1,110.0 312.9,110.0 318.6,110.0 324.3,110.0 330.0,110.0" fill="none" stroke="#b15c00" stroke-width="1.8" stroke-linejoin="round" stroke-linecap="round"/><circle cx="330.0" cy="110.0" r="2.5" fill="#b15c00"/>
<text x="386" y="126" text-anchor="end" font-family="'Segoe UI', Ubuntu, 'Helvetica Neue', sans-serif" font-size="14" font-weight="700" fill="#24292f">13</text>
<text x="430" y="126" text-anchor="end" font-family="'Segoe UI', Ubuntu, 'Helvetica Neue', sans-serif" font-size="11" font-weight="600" fill="#b15c00">+4</text>
</g>
<g class="row">
<text x="22" y="170" font-family="'Segoe UI', Ubuntu, 'Helvetica Neue', sans-serif" font-size="12" fill="#6e7781">Followers</text>
<polyline points="130.0,180.0 135.7,180.0 141.4,167.0 147.1,167.0 152.9,167.0 158.6,167.0 164.3,167.0 170.0,154.0 175.7,154.0 181.4,154.0 187.1,154.0 192.9,154.0 198.6,154.0 204.3,154.0 210.0,154.0 215.7,154.0 221.4,154.0 227.1,154.0 232.9,154.0 238.6,154.0 244.3,154.0 250.0,154.0 255.7,154.0 261.4,154.0 267.1,154.0 272.9,154.0 278.6,154.0 284.3,154.0 290.0,154.0 295.7,154.0 301.4,154.0 307.1,154.0 312.9,154.0 318.6,154.0 324.3,154.0 330.0,154.0" fill="none" stroke="#0f766e" stroke-width="1.8" stroke-linejoin="round" stroke-linecap="round"/><circle cx="330.0" cy="154.0" r="2.5" fill="#0f766e"/>
<text x="386" y="170" text-anchor="end" font-family="'Segoe UI', Ubuntu, 'Helvetica Neue', sans-serif" font-size="14" font-weight="700" fill="#24292f">6</text>
<text x="430" y="170" text-anchor="end" font-family="'Segoe UI', Ubuntu, 'Helvetica Neue', sans-serif" font-size="11" font-weight="600" fill="#0f766e">+2</text>
</g>
<text x="226" y="196" text-anchor="middle" font-family="'Segoe UI', Ubuntu, 'Helvetica Neue', sans-serif" font-size="10.5" fill="#6e7781">2026-07-26 → 2026-08-30</text>
</svg>